<svg xmlns="http://www.w3.org/2000/svg" fill="none" viewBox="0 0 61 60"><g fill="#2453E2" clip-path="url(#a)"><path d="M57.98 17.68 51.86 14 50.48 8.3a5.26 5.26 0 0 0-5.54-4.02l-7 .54-4.02-3.55a5.25 5.25 0 0 0-6.84 0l-4.01 3.55-7.01-.54a5.23 5.23 0 0 0-5.47 3.81l-2.03 6.3-5.54 3.28A5.25 5.25 0 0 0 .9 24.18l2.4 5.8-2.4 5.79c-.99 2.4-.1 5.14 2.12 6.5l6.12 3.64 1.38 5.74a5.26 5.26 0 0 0 5.54 4.02l6.93-.53 4.09 3.6a5.26 5.26 0 0 0 6.84 0l4.09-3.6 6.93.53a5.22 5.22 0 0 0 5.54-4.02l1.38-5.71 6.12-3.67a5.25 5.25 0 0 0 2.12-6.5l-2.4-5.8 2.4-5.8c.99-2.4.1-5.13-2.12-6.5ZM30.5 49.34A19.36 19.36 0 0 1 11.16 30 19.36 19.36 0 0 1 30.5 10.66 19.36 19.36 0 0 1 49.84 30 19.36 19.36 0 0 1 30.5 49.34Z"/><path d="M30.5 14.18c-8.72 0-15.82 7.1-15.82 15.82s7.1 15.82 15.82 15.82S46.32 38.72 46.32 30s-7.1-15.82-15.82-15.82Zm10.03 11.79L29.98 36.52a1.75 1.75 0 0 1-2.48 0l-7.03-7.04A1.76 1.76 0 1 1 22.95 27l5.8 5.79 9.3-9.3a1.76 1.76 0 1 1 2.48 2.48Z"/></g><defs><clipPath id="a"><path fill="#fff" d="M.5 0h60v60H.5z"/></clipPath></defs></svg>