<svg xmlns="http://www.w3.org/2000/svg" fill="none" viewBox="0 0 296 302"><path fill="#F9CD16" d="M286.4 156.2c-7.7-4-15.8-7-24.2-9-8-2.1-17.8-4.5-23.8-10.6-11-11.4 9.5-23.8 18-27.7 9.2-4.3 19.4-7.5 27.2-14.2 6-5 8-13.5 4.6-20.5a13.7 13.7 0 0 0-8.6-6.6c-9.7-2.3-20.1 4.6-28.8 8-6.7 2.6-23.5 9-28.5.6a9.8 9.8 0 0 1 .1-8.4c1.4-3.6 3.2-7 4.7-10.6 1.4-2.8 2.2-5.9 2.4-9a11.9 11.9 0 0 0-3-8.7c-3.7-4-8.6-2.5-12.7 0-7.2 5.4-14 11.3-20.3 17.8-5 4.2-11.9 10-18.8 9.8-9-.2-8.8-11.3-8.2-17.7 1.3-7.5 2.1-15.1 2.6-22.7 0-8.5-2.3-18.3-10-23.3-8.8-5.8-20.4-2.2-27.4 4.7-5.9 6.5-9.2 15-9.3 23.7-1.3 18 6.8 33 10.4 50 2.3 11.5-15-2.2-17.8-4.5C99.5 64.7 83.9 44 61.6 53.8a15.6 15.6 0 0 0-10 12c-.2 3.5 1 6.8 3 9.5 5.4 7 14 10.3 21.5 14.4l.7.4c8 4.1 15.5 9.3 22.2 15.4 4.3 4.2 9.1 10.5 6.6 16.8a10.9 10.9 0 0 1-2.1 3.3c-7.3 8.2-20.8 5.2-29.9 2.1-10.3-4-20.2-8.9-29.7-14.5-9.4-5.1-21.8-11.3-32.4-6.1a22 22 0 0 0-9.3 9.1 13 13 0 0 0-1.2 10c.8 2.3 2.2 4.2 4 5.8 1.8 1.5 3.8 2.8 6 3.8 6.1 3.2 12.8 5.6 19.2 8.2l20.8 9.2c5.2 2.3 10.7 4.8 15.7 7.6 5.5 3 12.6 8 12.5 15-.4 3.8-2.5 7.4-5.7 9.6a61.8 61.8 0 0 1-18.8 9.3c-6 1.5-11.6 4-16.6 7.4-6.7 5.4-7.9 15-2.7 21.9a26.5 26.5 0 0 0 18.8 6.8 62 62 0 0 0 20.4-3.8c9.5-3 18.1-8 27.7-10.7 9-2.5 18.2-3 27.4-1.6a32.6 32.6 0 0 1 25 15.2c2.5 5 3.7 10.7 3.5 16.4.1 17.2-5.8 38.8 11.3 50.4a29.5 29.5 0 0 0 23.7 3.6c8-2 16.8-7.7 18.2-16.4 1.3-8.4-4.4-16.4-9.4-22.7a107 107 0 0 1-16.6-24.8c-2.7-6.2-3.3-13-2-19.6.6-2.7 2-5.2 3.9-7 4.7-4.4 11-1.8 15.5 1.6 4.4 3.4 8.6 7 13 10.5 5.9 4.6 13 9.7 20.5 5.7a13.3 13.3 0 0 0 4.5-19.3 22 22 0 0 0-8.3-6.6c-2-1-4.2-1.8-6-3a9.1 9.1 0 0 1-5-11c1.6-3.2 4.2-5.8 7.5-7.3 9-4.4 18.5 1 26.6 5 9.5 4.8 19.2 8.6 29.2 2.8a25 25 0 0 0 9.6-10.4c4.2-8.7-.3-17-8-21.6ZM204.2 82c-8.5 7-19 10.8-30 11a33.6 33.6 0 0 1-25-11.7 5.2 5.2 0 1 1 7.9-6.7 23.2 23.2 0 0 0 17.3 8c8.7-.2 17-3.3 23.6-9a5.2 5.2 0 0 1 6.2 8.4Z"/></svg>