<svg xmlns="http://www.w3.org/2000/svg" fill="none" viewBox="0 0 114 114"><path fill="url(#a)" d="M0 0h114v114H0z"/><path fill="#FABE2C" d="m59.8 50.03-4.02-7.47-4.47 7.21a4.9 4.9 0 1 0 8.48.26Z"/><path fill="#FED843" d="m55.78 42.56-4.47 7.21a4.9 4.9 0 0 0-.73 2.43 4.8 4.8 0 0 0 5.06 5.04v-6.41c.03-.86.14-7.4.14-8.27Z"/><path fill="#FABE2C" d="M66.47 93.96c0 .95-.75 3.74-4.49 3.74-4.48 0-5.23-5.23-10.1-1.5-.78.61-2.48 1.64-4.1 1.5-1.93-.18-3.74-1.07-3.74-4.11 0-3.99 3.36-3.74 3.36-7.1 0-2.25-3.36-3.22-3.36-5.61 0-2.24 2.23-1.87 5.23-1.87 2.62 0 3.74-3.74 5.98-3.74 2.25 0 3.74 2.62 3.37 5.98-.38 3.37-1.87 5.6 1.12 6.36 2.21.55 6.73 1.86 6.73 6.35Z"/><path fill="#FED843" d="M66.46 93.96c0 .95-.75 3.74-4.48 3.74-4.49 0-5.24-5.23-10.1-1.5-.78.61-2.49 1.64-4.1 1.5-1.94-.18-3.75-1.07-3.75-4.11 0-3.99 3.37-3.74 3.37-7.1 0-2.37-3.72-3.32-3.34-6 .35 1.88 4.83 1.14 5.58 6 .63 4.06-1.87 4.48-1.12 5.98 1.5 2.99 5.23-2.62 10.1.74 2.83 1.96 5.23 4.11 7.84.75Z"/><path fill="#FABE2C" d="M66.46 83.88c0 2.98-3.55 1.76-4.49.36-1.48-2.22-.01-4.1 1.5-4.1 1.5 0 2.99.75 2.99 3.74Z"/><path fill="#FED843" d="m66.46 83.88-.01.35a3.88 3.88 0 0 1-2.98-1.48c-.63-.95-.73-1.83-.51-2.53.16-.05.34-.07.51-.07 1.5 0 3 .74 3 3.73ZM54.5 78.26s2.24-.37 1.5 1.87c-.75 2.24-3.37 3-3 .75.38-2.24 1.13-2.62 1.5-2.62Zm1.5 4.11s-1.12 5.24.74 5.98c1.87.75 4.12 1.87 4.12 1.87s-6.36.38-6.73-1.5c-.38-1.86.75-5.23 1.87-6.35Z"/><path fill="#FABE2C" d="M81.2 63.16c.14 1-.19 2.1-.08 3.09.43 4.28.2 8.6-.69 12.8-.16-1.15.78-3.38.28-4.37l-.31 3.45c-.27 1.42-.37 2.88-.62 4.28l-.5 2.24c-.04.34.3.39.41.67.01.34-.02.67-.09 1-.22.9-1.2 3.37-.84 4.12l.09-.04c.64-2.53 1.08-5.34 1.86-7.9.1.7-.81 5.13-1.29 5.47.08.25.06.2.26.38-.74.83-.45 2.54-1.27 2.88.2.86-1.97 6.48-2.68 7.64l.03.16.1.03c.09-.17.14-.35.15-.54l.16.22c-.1.41-.52.81-.63 1.28-.06.22.09.4-.02.66l.26.32c.13-.03.1-.08.28-.29l.03.04c.1.5.38 1.07.01 1.6.17.3.38.58.64.82h.06l.95-1.47c.2-.02.38-.07.55-.16.1.25-.23.78-.45 1.02l.1.22c.63-.83.94-1.5 1.62-2.14l.03.03-.98 1.83.03.15c.93-.56 1.2-2.17 2-3.03l.03.03c-.53 1.25-1.27 2.43-1.9 3.71l-1.14 2.18.03.1.7-.71.06-.06.36.41.22.03c.22-.56.65-.98.83-1.6l.03-.03.1.03c.1.85-.72 2.03-.98 2.78l.16.16h.06c.47-1.14.8-3.17 1.55-4.12l.1.03c.04.38-.3.61-.35 1l.1.6-.35.35c-.2.34-.2.94-.32 1.28l-.54.99-.22 1.25c-.28.58-.6.92-.8 1.5-.24.73 1.22-.88.55-.22l.24-.88-.33.21c.18.99-.21-.74.32.34-.1.18.2-.08 0-.03-.03.22.06-.38-.03-.17.14.02-.04.05 0 0l-.06.2c1.13-4.08 1.04-2.87-.34.56l.94-.75c1.9-6.66-.7.57-.5.2.94-1.9.63 1.1 1.46-.87 2.06-4.88 3.3-9.9 4.58-14.8l.1-.1c.17.41-.14.64.13 1.09-.18.14-.12.13-.3.1-.2.87-.32 1.9-.71 2.78a1 1 0 0 0 .35.54l-.03.03-.3-.16c-.52.9-.37 1.88-.9 2.72l.22.35c-.6.45-.57 1.3-.92 1.96.08.22.24.33.48.54l-.16.35c-.16-.24-.09-.34-.13-.57l-.26.13-.06.19c.27.38.4.55.45.9l-.13.13a.85.85 0 0 1-.22-.74l-.03-.03c-.64.4-.38 1.31-.76 1.86l.1.09.02.03c.06 0 .11-.02.16-.03l-.12-.13.44-.06.2.25-.42.74-.29-.1c-.05-.16.01-.2.03-.35-.29-.03-.46.65-.57.96l.13.2.29-.68.1-.03.25.19.03.03c-.13.44-.16.94-.27 1.5l-.07.07.1.1c3.93-7.93 5.56-16.26 6.88-24.23l-.13-.77.31-.9v-1.66c.14-.98.24-1.97.27-2.97.06-.84-.2-1.8.09-2.65l-.07-.57-.25.51c.03-.25 0-.5-.1-.73.09-.2.23-.37.42-.48a7.25 7.25 0 0 1-.26-1.28l-.1-.1c-.45.8.09 2.4-.21 3.36a.6.6 0 0 1-.1-.54l-.06-.32-.2.44c.56 1.05.36 1.2.2 2.37-.34-.62.04-1.17-.13-1.8h-.25c.08.27.18.53.03.8l-.16-.23c-.08-.37.17-.4-.16-.73.05-.3.33-.6.31-.9l-.12.07c-.23-1.07.02-2.3.1-3.39.03-.33-.23-.67-.18-1.01.3-2.24 0-4.84-.38-7.06-.4-2.28-.78-4.66-1.32-6.92l-.49-.8c-.03-.19.17-.44.13-.64-.2-1.06-.68-2.01-1.03-3.06l-.14-.74c-.95-2.18-1.68-4.47-2.71-6.56-.68-1.4-1.53-2.58-2.15-3.86-.15.04-.13.03-.23.16 0-.22.06-.29.16-.35L78.56 38c-.03 0-.07-.02-.1-.04l-.03.04c.1.78.9 1.6 1.29 2.36l.16.09-.2.06c-.3-.72-.91-1.46-1.18-2.13a2.23 2.23 0 0 0-.58-.19l-.13-.96a2.6 2.6 0 0 0-.33-.51c-.63-.83-1.71-1.65-1.82-2.38-1.01-.15-3.07-3.66-4.14-4.24l-.1.04.04.1c.87.3.87 1.39 1.66 1.97 1.87 1.36 3.8 4.25 4.73 6.01.46.89.87 2.08 1.57 2.9v.07l-.06.06-.1.03c-1.19-1.82-2.12-3.91-3.43-5.76-.55-.78-1.1-1.32-1.57-2.01l-.65-.44c-.1-.17-.07-.34-.32-.58-.33-.3-.8-.36-.96-.7l-.61.1-1.45-1.48-.03.03c.07.66 1.24 1.26 1.54 1.9v.26s-1.2-1.36-1.6-1.78c-.09.22 1.23 1.76 1.48 1.98l-.32.32c.22.08.35-.07.54.03.8.41 2.18 3.04 2.6 3.72.55.9 1.12 1.68 1.51 2.58.49 1.13.8 2.55 1.33 3.67.43.92.67 1.7 1 2.52.07.2.32.32.35.41.1.31-.03.84.1 1.18.3.9 1.65 3.82 1.26 4.5l-.2-.76h-.12l.23 1.04a.49.49 0 0 0 .44.06c.38.59.12 1.14.26 1.7l.2.53v.05c.2.48.28 1 .22 1.52l-.22-1.52-.17-.46-.03-.12-.29-.77c-.05-.28.02-.54-.13-.83l-.13.12c.63 2.52.8 4.94 1.02 7.44.1 1.14-.04 2.27.12 3.42Zm-1.42 21.62c-.07.04.06-.51.13-.64l-.13.64Zm-.06-1.47-.04.04v-.2l.04.16Zm.65 22.22c-.05.01-.1.03-.16.03 0-.14 0-.03.07-.12l.1.1Zm1.06-4.54-.1.29-.25.25-.03-.03-.03-.1.38-.44.03.03Zm-3.94-5.06-.1.1c-.11-.22-.08-.31.07-.52l.03.42Zm1.87-5.6-.2.51c-.18.1-.01-.41.04-.54l.1-.03.06.06Zm3.23 16.37c-.1-.05-.1-.17.06-.38l-.06.38Zm.15-1.7-.16.1a.6.6 0 0 1-.06-.5l.28-.23.1.03-.16.6Zm.72-2.39-.03.03-.13-.06.13-.13.03.16Zm.44-1.4.04.15-.07.07c-.03 0-.06-.02-.1-.04l.1-.21.03.02Zm.45-1.03-.2.13a.64.64 0 0 1-.1-.54l.1-.03.2.44Zm1.16-4.83c.08.4-.06.64-.12 1.03l-.1.1-.07-.84.26-.32.03.03Zm-3.38-24.28.03.1-.06.06.03-.16Zm-.6.67a.63.63 0 0 1 .03-.41l.13.32-.13.12-.03-.03Zm-.01.32.03 1.44-.06.06-.1-.03.13-1.47Zm-.13 1.73.04-.04v.77c-.14.07-.06-.57-.02-.73h-.02Zm-.15 2.07.04-.03c.24.7-.16 1.5-.22 2.2l-.1.1c0-.76.1-1.53.3-2.27h-.02ZM85.6 93.1l-.03-.03.03-.1.28.23-.28-.1Zm-.07-.51-.13.13-.12-.13.12-.58.13.58Zm.8-.48c-.2-.14-.4-.26-.61-.35l-.03-.1c.39-.2.56.1.65.45h-.01Zm-5.83-6.05c-.08-.18-.08-.07.01-.25l.03.03.03.16-.07.06Zm6.06 5.5-.16.16-.03-.03v-.57l.1.03.1.42Zm.06-.7c-.18.02-.02-.6.03-.73.14.27.01.46-.03.73Zm.44-1.6-.03.04c-.03 0-.06-.03-.1-.04l.01-.12h.13v.12Zm1.25-7.92-.03.04c-.03 0-.06-.02-.1-.04l-.06-.12.13-.13c.05.07.07.16.06.25Zm-1.14 2.12c-.16 1.2-.08 2.55-.37 3.76l-.38.57c-.17.8.14 1.79-.6 2.59l.22.23-.2.25h-.06l-.1-.1c.02-1.66.6-3.4.94-5.05.45-2.12.4-4.5 1.13-6.58.23 1.47-.38 2.85-.58 4.32Zm1.46-4.03-.03.03a1.14 1.14 0 0 1-.04-.86V78l.1.03c.17.55-.08.85-.03 1.37Zm.25-1.6v.26a1.75 1.75 0 0 1-.48-.68l.03-.16c.12.21.27.4.44.58Zm-.32-.64-.26-.06.03-.22.04-.03h.06l.13.31Zm-6.9-6.97c-.17.07-.1-.62-.04-.8l.04.8Zm.57-.64-.1.1c-.08-.19-.08-.08.01-.26l.09.16Zm-.14-4.4c-.04 0-.07.01-.1.03l-.03-.04.03-.16.1.16Zm-.54 1.11c.1.93.13 1.87.07 2.81-.22-.34-.22-4.07-.11-4.7.21.68-.03 1.25.04 1.9Zm.5-1.4-.25-.25.03-.1.19.07.03.27Zm-.54-1.37c-.1-.06-.07-.1-.13-.25l.03-.48.1.73Zm6.7 5.89-.17-.23.04-.03.03-.03.1.29Zm-7.84-27.63.1-.1.38.83c-.13-.01-.37-.51-.48-.73ZM73.05 34l.03-.1.03-.03.1.29c-.14-.02-.05 0-.16-.17v.01Zm9.6 12.25c-.1-.03-.07-.07-.07-.19l.07.2Zm-.23-.41c-.1-.13-.04-.03 0-.2v.2Zm-3.02-4.4.03-.03a.6.6 0 0 1 .07 0c.73.98 1.29 2.46 1.64 3.54-.3-.18-1.69-3.1-1.74-3.5Zm1.97 4.05.06.13h-.06v-.13Zm1.6 1.65.07.26-.07.06v-.32Zm-.68.55.03.54c-.13 0-.05-.42-.02-.54h-.01Zm.16.67.03-.1c.36.58.27 1.11.75 1.75-.82-.3-.58-1.13-.77-1.65Zm1.07 2.7.12-.12.04.1-.07.06h-.06l-.03-.04Zm1.12 1.05.03-.1c.4.52.41.98.77 1.41l-.22-.03c-.38-.45-.35-.84-.57-1.27h-.01Zm-1.15-.26-.03-.16.03-.03h.12c.53.78.44 1.52.78 2.24a19.7 19.7 0 0 1-.9-2.03v-.02Zm1.55 4.72.23 1.12c-.3-.02-.32-.83-.22-1.1l-.01-.02Zm-3.7-.67c.22.84.02 1.62.17 2.4.07.32.33.65.39.95-.53-.52-.63-2.66-.55-3.35Zm-.27 1.7.03-.17.1.42-.13-.26Zm.03.47.07-.13c.26.43.14 1.03.13 1.47-.24-.26-.16-.95-.2-1.34Zm.7 1.9.2.07c.15.08.17.24.22.41l-.23.16-.13-.06a.66.66 0 0 0-.1-.54l.04-.04Zm-.51-.38c.2.54.04 1.04.1 1.57-.18-.21-.2-1.2-.1-1.56Z"/><path fill="#FA7F4F" d="m24.4 41.02 25.58-16.37-4.35-5.97-22.94 20.06a1.43 1.43 0 0 0 1.72 2.28Z"/><path fill="#FED843" d="m52.03 22.57-3.8-5.21c-.08-.13-.2-.23-.32-.32V17a5.08 5.08 0 0 1 2.48-4.24c1.35-.82 2.9-.93 4.43-1.04.44-.04.87-.07 1.3-.13a6.66 6.66 0 0 0 4.37-2.46 11.11 11.11 0 0 1-.4 9.45 9.36 9.36 0 0 1-1.87 2.47c-.44.4-.92.76-1.44 1.05a6.05 6.05 0 0 1-4.74.45h-.01Z"/><path fill="#FC5C1D" d="m24.42 41.02 25.56-16.37-1.45-2-25.57 16.37c-.19.12-.4.2-.62.21a1.43 1.43 0 0 0 2.08 1.79Z"/><path fill="#F0C726" d="M56.78 22.11c.52-.3 1-.64 1.44-1.05a9.36 9.36 0 0 0 1.87-2.47 11.11 11.11 0 0 0 .4-9.45 6.35 6.35 0 0 1-.7.76 11.1 11.1 0 0 1-1.16 6.7 9.36 9.36 0 0 1-1.87 2.46c-.44.4-.92.76-1.44 1.05a6.05 6.05 0 0 1-4.74.45h-.01l1.46 2h.01c1.53.47 3.25.38 4.74-.45Z"/><path fill="#F4F8FC" d="M33.37 32.06a.52.52 0 0 1 .2-.34l.23-.16a.53.53 0 0 1 .62.85l-.22.16a.53.53 0 0 1-.83-.5Zm1.85-1.35a.52.52 0 0 1 .21-.34l1.02-.74a.53.53 0 0 1 .62.85l-1.02.74a.52.52 0 0 1-.83-.5Zm2.8-2.03a.52.52 0 0 1 .21-.34l6.85-4.99a.53.53 0 0 1 .62.85l-6.85 4.98a.52.52 0 0 1-.83-.5ZM50.02 21.07a.52.52 0 0 1 .5-.45 11.3 11.3 0 0 0 3.2-.58c.64-.21 1.27-.47 1.87-.78a.53.53 0 1 1 .47.94c-.65.33-1.32.6-2 .84-1.14.38-2.31.6-3.5.63a.52.52 0 0 1-.54-.6Z"/><path fill="#F88E64" d="M51.72 24.6a1.44 1.44 0 0 0 .31-2.02v-.01l-3.8-5.21a1.44 1.44 0 0 0-2-.32l-.7.5-.47.35 5.5 7.55 1.16-.85Z"/><path fill="#D4440C" d="m50.33 22.67-1.17.85 1.4 1.92 1.16-.85a1.44 1.44 0 0 0 .32-2.01l-.01-.01-1.2-1.65a1.47 1.47 0 0 1-.5 1.75Z"/><defs><linearGradient id="a" x1="-9.75" x2="92.08" y1="-3.47" y2="24.27" gradientUnits="userSpaceOnUse"><stop stop-color="#412FD0"/><stop offset="1" stop-color="#0479F2"/></linearGradient></defs></svg>