<svg xmlns="http://www.w3.org/2000/svg" fill="none" viewBox="0 0 60 60"><g fill="#2453E2" fill-rule="evenodd" clip-path="url(#a)" clip-rule="evenodd"><path d="M29.06 24.93c-1.1 0-2 .9-2 2.01v6.12a2.01 2.01 0 0 0 4 0v-6.12c0-1.1-.9-2-2-2Z"/><path d="M60 30a7.74 7.74 0 0 0-4.25-6.9 7.73 7.73 0 0 0-6.9-11.95 7.74 7.74 0 0 0-11.95-6.9 7.73 7.73 0 0 0-13.8 0 7.74 7.74 0 0 0-11.95 6.9 7.74 7.74 0 0 0-6.9 11.95 7.74 7.74 0 0 0 0 13.8 7.73 7.73 0 0 0 6.9 11.95 7.74 7.74 0 0 0 11.95 6.9 7.73 7.73 0 0 0 13.8 0 7.74 7.74 0 0 0 11.95-6.9 7.73 7.73 0 0 0 6.9-11.95A7.73 7.73 0 0 0 60 30Zm-44.12 8.35h-2.83a1.76 1.76 0 0 1 0-3.52h2.83a2.01 2.01 0 0 0 0-4.01h-2.83c-.97 0-1.75-.8-1.75-1.76V23.4c0-.97.78-1.76 1.75-1.76h5.65a1.76 1.76 0 0 1 0 3.52h-3.89v2.13h1.07a5.53 5.53 0 0 1 0 11.05Zm18.7-5.3a5.53 5.53 0 0 1-11.04.01v-6.12a5.53 5.53 0 0 1 11.04 0v6.12Zm4.83-11.4a1.76 1.76 0 1 1 0 3.52 1.76 1.76 0 0 1 0-3.52Zm7.54 16.7a1.76 1.76 0 1 1 0-3.52 1.76 1.76 0 0 1 0 3.52Zm1.53-14.33-7.53 13.65a1.76 1.76 0 0 1-3.08-1.7l7.54-13.64a1.76 1.76 0 1 1 3.07 1.7Z"/></g><defs><clipPath id="a"><path fill="#fff" d="M0 0h60v60H0z"/></clipPath></defs></svg>