<svg xmlns="http://www.w3.org/2000/svg" fill="none" viewBox="0 0 60 60"><path fill="#2453E2" d="M47.5 43.75v-.45a5 5 0 1 0-10 .45 5 5 0 0 0 10 0Zm-20 0v-.45a5 5 0 1 0-10 .45 5 5 0 0 0 10 0Z"/><path fill="#2453E2" d="M8.75 31.88H5a1.85 1.85 0 0 0-1.6.9A1.87 1.87 0 0 0 5 35.63h6.25a1.87 1.87 0 1 1 0 3.75h-2.5a1.87 1.87 0 1 0 0 3.75h6.9a6.7 6.7 0 0 1 1.35-3.5 7 7 0 0 1 5.5-2.75 6.85 6.85 0 0 1 6.85 6.25h6.3a6.87 6.87 0 0 1 13.7 0h3.4a2.5 2.5 0 0 0 2.5-2l1.65-8.25a.4.4 0 0 1 0-.18 2 2 0 0 0 0-.65L52.2 18.2a3.72 3.72 0 0 0-3.55-2.5h-4.5l.27-2a3.78 3.78 0 0 0-3.72-4.25H12.5a1.87 1.87 0 1 0 0 3.75h3.13a1.87 1.87 0 1 1 0 3.75H5a1.9 1.9 0 0 0-1.88 1.88 1.85 1.85 0 0 0 1.75 1.85h6.38a1.87 1.87 0 1 1 0 3.75H7.1a1.87 1.87 0 0 0 .4 3.7h1.25a1.87 1.87 0 1 1 0 3.75Zm35-12.5h4.55a.65.65 0 0 1 .6.42l3.6 10.83H42.25l1.5-11.25Z"/></svg>