<svg xmlns="http://www.w3.org/2000/svg" fill="none" viewBox="0 0 20 31"><path fill="#FABE2C" d="m10.96 13.34-1.17-2.16-1.3 2.09a1.42 1.42 0 1 0 2.47.07Z"/><path fill="#FED843" d="m9.8 11.18-1.3 2.09c-.13.21-.2.45-.21.7a1.4 1.4 0 0 0 1.46 1.46v-1.86l.04-2.4Z"/><path fill="#FABE2C" d="M12.89 26.08c0 .27-.22 1.08-1.3 1.08-1.3 0-1.52-1.52-2.93-.43-.22.17-.72.47-1.19.43-.56-.05-1.08-.3-1.08-1.2 0-1.15.97-1.08.97-2.05 0-.65-.97-.93-.97-1.63 0-.65.65-.54 1.52-.54.75 0 1.08-1.08 1.73-1.08.65 0 1.08.76.97 1.73-.1.98-.54 1.63.33 1.84.64.16 1.95.55 1.95 1.85Z"/><path fill="#FED843" d="M12.89 26.08c0 .27-.22 1.08-1.3 1.08-1.3 0-1.52-1.52-2.93-.43-.23.17-.72.47-1.19.43-.56-.05-1.08-.31-1.08-1.2 0-1.15.97-1.08.97-2.05 0-.69-1.08-.96-.97-1.74.1.55 1.4.33 1.62 1.74.18 1.18-.54 1.3-.32 1.73.43.87 1.51-.76 2.92.22.82.57 1.52 1.19 2.28.22Z"/><path fill="#FABE2C" d="M12.89 23.15c0 .87-1.03.51-1.3.1-.43-.64 0-1.18.43-1.18s.87.22.87 1.08Z"/><path fill="#FED843" d="M12.89 23.15v.1c-.32.02-.72-.2-.87-.43-.18-.27-.2-.53-.15-.73l.15-.02c.44 0 .87.22.87 1.08Zm-3.47-1.63s.65-.1.44.55c-.22.65-.98.86-.87.21.1-.65.32-.76.43-.76Zm.44 1.2s-.33 1.51.21 1.73c.54.22 1.2.54 1.2.54s-1.85.11-1.96-.43c-.1-.54.22-1.52.55-1.84Z"/><path fill="#FABE2C" d="M17.16 17.15c.04.29-.05.6-.02.9.12 1.23.05 2.48-.2 3.7-.05-.33.22-.98.08-1.26l-.1 1c-.07.4-.1.83-.17 1.24l-.15.65c0 .1.09.11.12.2 0 .09 0 .18-.02.28-.07.26-.35.98-.25 1.2l.03-.02c.18-.73.31-1.54.54-2.29.03.2-.24 1.5-.38 1.59.03.07.02.06.08.1-.22.25-.13.74-.37.84.06.25-.57 1.88-.78 2.22l.01.04.03.01c.03-.04.04-.1.05-.15l.04.06c-.03.12-.15.24-.18.37-.02.07.02.12 0 .2l.07.09c.04-.01.03-.03.08-.09l.01.01c.03.15.1.31 0 .46.05.1.11.18.19.24h.01l.28-.42a.4.4 0 0 0 .16-.05c.03.07-.07.23-.13.3l.03.06c.18-.24.27-.43.47-.62v.01l-.28.53.01.04c.27-.16.35-.62.58-.87h.01c-.15.37-.37.7-.55 1.08l-.33.63v.03l.2-.2.03-.02.1.12h.06c.07-.16.2-.28.24-.46h.04c.03.25-.2.59-.28.8l.04.05h.02c.14-.33.23-.92.45-1.2l.03.02c.01.1-.08.18-.1.29l.03.17-.1.1c-.06.1-.06.28-.1.37l-.15.3-.06.35c-.09.17-.18.27-.24.44-.07.21.36-.26.16-.07l.07-.25-.1.06c.06.29-.06-.21.1.1-.03.05.06-.02 0-.01-.01.06.02-.1-.01-.05.04 0-.01.01 0 0l-.02.06c.33-1.18.3-.83-.1.16l.28-.21c.55-1.94-.2.16-.15.05.27-.55.18.32.42-.25.6-1.42.96-2.87 1.33-4.29l.03-.03c.05.12-.04.19.04.32-.05.04-.04.03-.09.02-.06.26-.09.55-.2.81a.3.3 0 0 0 .1.16h-.01l-.09-.04c-.15.26-.1.55-.26.79l.06.1c-.17.13-.16.38-.26.57.02.06.07.1.14.15l-.05.1c-.05-.06-.03-.1-.04-.16l-.07.04-.02.05c.08.11.12.16.13.26l-.04.04a.24.24 0 0 1-.06-.21l-.01-.01c-.18.12-.1.38-.22.54l.03.02v.01h.05l-.03-.04.12-.02.06.07-.12.22-.08-.03c-.02-.05 0-.06 0-.1-.08-.01-.13.18-.16.27l.04.06.08-.2h.03l.07.05.01.01c-.04.13-.04.27-.08.44l-.02.01.03.03a24.42 24.42 0 0 0 2-7.02l-.04-.22.09-.26v-.48c.04-.29.07-.58.08-.86.01-.25-.06-.53.02-.77l-.02-.17-.07.15c0-.07 0-.15-.03-.21.03-.06.07-.1.12-.14a2.1 2.1 0 0 1-.07-.37l-.03-.03c-.13.23.02.7-.06.97a.17.17 0 0 1-.03-.15l-.02-.1-.06.13c.16.3.1.35.06.69-.1-.18.01-.34-.04-.52h-.07c.02.07.05.15 0 .23l-.04-.07c-.02-.1.05-.11-.04-.21.01-.09.1-.18.09-.26a.7.7 0 0 0-.04.02c-.07-.31 0-.67.03-.98.01-.1-.07-.2-.05-.3.08-.65 0-1.4-.11-2.04-.12-.66-.23-1.35-.38-2l-.14-.24c-.01-.05.04-.13.03-.19-.06-.3-.2-.58-.3-.88l-.04-.22c-.27-.63-.49-1.3-.78-1.9-.2-.4-.45-.75-.63-1.12-.04.01-.03.01-.06.05 0-.07.01-.08.04-.1l-.45-.76-.02-.01h-.01c.03.23.26.47.37.7l.05.02-.06.02c-.09-.21-.27-.43-.34-.62a.65.65 0 0 0-.17-.06l-.04-.27a.74.74 0 0 0-.1-.15c-.18-.24-.5-.48-.52-.7-.3-.04-.9-1.05-1.2-1.22h-.03l.01.04c.25.09.25.4.48.57a5.8 5.8 0 0 1 1.37 1.74c.14.26.26.6.46.84v.02l-.02.02h-.03c-.34-.52-.61-1.13-1-1.66-.15-.23-.31-.38-.45-.58l-.19-.13c-.02-.05-.02-.1-.09-.17-.1-.09-.23-.1-.28-.2l-.17.03-.42-.43h-.01c.02.2.36.37.44.56v.07l-.46-.51c-.03.06.35.5.43.57l-.1.1c.07.02.1-.03.16 0 .24.12.64.88.76 1.08.16.26.32.49.43.75.15.32.23.74.39 1.06.12.27.2.5.29.73.02.06.1.1.1.12.03.1 0 .24.03.34.09.26.48 1.11.37 1.3l-.06-.21h-.04l.07.3a.14.14 0 0 0 .13.02c.1.17.03.33.07.49l.06.15v.02c.06.14.08.29.06.44l-.06-.44-.05-.14-.01-.03-.08-.22c-.02-.09 0-.16-.04-.25l-.04.04c.18.73.24 1.43.3 2.16.03.33-.01.65.03.99Zm-.41 6.27c-.02 0 .01-.15.04-.19l-.04.19Zm-.02-.43h-.01v-.05.05Zm.19 6.44h-.05c0-.03 0 0 .02-.03l.03.03Zm.3-1.32-.02.09-.08.07-.01-.04.1-.13.02.01Zm-1.14-1.46-.02.02c-.04-.06-.03-.08.02-.14v.12Zm.55-1.63-.06.15c-.05.03 0-.12 0-.16h.04l.02.01Zm.93 4.75c-.03-.02-.03-.05.02-.11l-.02.1Zm.05-.5-.05.04a.18.18 0 0 1-.02-.15l.08-.07.03.01-.04.18Zm.2-.69v.01l-.04-.02.03-.03.01.04Zm.13-.4.01.04-.02.02h-.02l.02-.07h.01Zm.13-.3-.05.04a.19.19 0 0 1-.03-.16l.03-.01.05.13Zm.34-1.4c.02.11-.02.18-.04.3l-.03.02-.01-.24.07-.09v.01Zm-.98-7.04v.03l-.01.02v-.05Zm-.18.2a.18.18 0 0 1 .01-.12l.04.09-.04.03Zm0 .09.01.41-.02.02h-.02l.03-.43Zm-.03.5v-.01.22c-.03.02-.01-.17 0-.21Zm-.05.6.01-.01c.07.2-.04.44-.06.64l-.03.03c0-.22.03-.45.09-.66Zm1.26 5v-.04l.08.06-.08-.03Zm-.02-.16-.03.04-.04-.04.03-.16.04.16Zm.23-.13a.95.95 0 0 0-.17-.1l-.01-.03c.11-.06.16.03.19.13Zm-1.69-1.76c-.02-.05-.02-.02 0-.07h.02v.05l-.02.02Zm1.76 1.6-.05.04v-.17h.02l.03.13Zm.02-.2c-.05 0 0-.18 0-.22.05.08.01.14 0 .21Zm.13-.47-.01.01h-.03v-.05h.04v.04Zm.36-2.3-.01.01h-.03l-.02-.04.04-.04.02.07Zm-.33.62c-.05.35-.03.74-.11 1.09l-.11.16c-.05.24.04.52-.17.75l.06.07-.06.07h-.02l-.02-.02c0-.48.17-.99.27-1.47.13-.61.11-1.3.33-1.9.06.42-.12.82-.17 1.25Zm.42-1.17a.33.33 0 0 1-.02-.24v-.17l.03.01c.05.16-.03.25-.01.4Zm.07-.46v.07a.5.5 0 0 1-.14-.2l.01-.04.13.17Zm-.1-.19-.07-.02.01-.06h.03l.04.08Zm-2-2.02c-.04.02-.02-.18 0-.23v.23Zm.18-.19-.03.03c-.03-.05-.03-.02 0-.07l.03.04Zm-.05-1.27h-.03v-.05l.03.05Zm-.15.32c.03.27.04.55.02.82a6.18 6.18 0 0 1-.03-1.36c.06.2-.01.36 0 .54Zm.14-.4-.07-.08v-.02l.06.01.01.08Zm-.15-.4c-.03-.02-.02-.03-.04-.07v-.14l.04.21Zm1.94 1.7-.05-.06h.01v-.02l.04.09Zm-2.27-8 .02-.03.12.24c-.04 0-.11-.15-.14-.21ZM14.8 8.7v-.03h.02l.02.07c-.04 0-.01 0-.04-.04Zm2.78 3.55c-.03 0-.02-.02-.02-.06l.02.06Zm-.07-.12c-.02-.04 0 0 0-.06v.06Zm-.87-1.27v-.01h.03c.2.28.37.71.47 1.02-.08-.05-.49-.9-.5-1.01Zm.57 1.17.02.04h-.02v-.04Zm.46.48.02.07-.02.02v-.1Zm-.2.16.02.15c-.04 0-.02-.12-.01-.15Zm.05.19.01-.03c.1.17.08.32.22.51-.24-.09-.17-.33-.22-.48Zm.31.78.04-.03v.03l-.01.01h-.02Zm.33.3v-.02c.12.15.12.28.23.4h-.06c-.12-.13-.1-.24-.17-.37Zm-.34-.07v-.05h.04c.15.22.12.44.22.65a5.7 5.7 0 0 1-.25-.6Zm.45 1.37.07.32c-.09 0-.1-.24-.06-.31Zm-1.07-.2c.06.25 0 .48.05.7.02.1.1.19.11.28-.15-.15-.18-.77-.16-.97Zm-.08.5.01-.05.03.12-.04-.07Zm.01.14.02-.04c.08.12.04.3.04.42-.07-.07-.05-.27-.06-.38Zm.2.55c.02 0 .04 0 .06.02.05.02.05.07.06.12l-.06.04-.04-.02a.2.2 0 0 0-.03-.15l.01-.01Zm-.14-.11c.05.15 0 .3.02.45-.05-.06-.05-.35-.02-.45Z"/><path fill="#FA7F4F" d="m.7 10.73 7.4-4.74-1.25-1.74L.2 10.07a.41.41 0 0 0 .5.66Z"/><path fill="#FED843" d="m8.7 5.38-1.1-1.5a.42.42 0 0 0-.09-.1 1.47 1.47 0 0 1 .72-1.24c.39-.24.84-.27 1.28-.3l.38-.04a1.93 1.93 0 0 0 1.27-.7 3.22 3.22 0 0 1-.12 2.73c-.14.27-.32.5-.54.71-.13.12-.27.22-.42.3-.43.25-.93.28-1.37.14Z"/><path fill="#FC5C1D" d="m.7 10.73 7.41-4.74-.42-.58-7.41 4.74a.41.41 0 0 1-.18.06.41.41 0 0 0 .6.52Z"/><path fill="#F0C726" d="M10.08 5.25c.15-.09.3-.19.42-.3.22-.21.4-.45.54-.72a3.22 3.22 0 0 0 .12-2.74 1.83 1.83 0 0 1-.2.22c.09.67-.03 1.34-.34 1.94-.14.27-.33.5-.55.71a1.75 1.75 0 0 1-1.79.43v.01l.42.58c.45.14.95.11 1.38-.13Z"/><path fill="#F4F8FC" d="M3.3 8.13a.15.15 0 0 1 .06-.1L3.42 8a.15.15 0 0 1 .18.24l-.07.05a.15.15 0 0 1-.23-.15Zm.53-.39a.15.15 0 0 1 .06-.1l.3-.21a.15.15 0 0 1 .18.25l-.3.21a.15.15 0 0 1-.24-.15Zm.81-.59a.15.15 0 0 1 .06-.1L6.7 5.61a.15.15 0 1 1 .18.24L4.88 7.3a.15.15 0 0 1-.24-.15ZM8.12 4.95a.15.15 0 0 1 .15-.13 3.28 3.28 0 0 0 1.47-.4.15.15 0 0 1 .13.28 4.23 4.23 0 0 1-1.6.42.15.15 0 0 1-.15-.17Z"/><path fill="#F88E64" d="M8.61 5.97a.42.42 0 0 0 .1-.58L7.6 3.86a.42.42 0 0 0-.59-.09l-.2.15-.14.1 1.6 2.18.33-.24Z"/><path fill="#D4440C" d="m8.21 5.41-.34.25.4.55.34-.24a.42.42 0 0 0 .1-.58l-.35-.49a.43.43 0 0 1-.15.51Z"/></svg>