<svg xmlns="http://www.w3.org/2000/svg" fill="none" viewBox="0 0 183 126"><path fill="#FABE2C" d="M161.73 43.9 159 38.84l-3.04 4.9a3.33 3.33 0 1 0 5.77.18Z"/><path fill="#FED843" d="m159 38.83-3.04 4.9c-.3.5-.47 1.06-.5 1.65-.05 1.83 1.27 3.42 3.45 3.42v-4.35c.02-.59.09-5.03.09-5.62Z"/><path fill="#FABE2C" d="M166.26 73.76c0 .65-.5 2.54-3.04 2.54-3.05 0-3.56-3.56-6.86-1.02-.54.42-1.7 1.12-2.8 1.02-1.3-.12-2.54-.72-2.54-2.8 0-2.7 2.29-2.53 2.29-4.82 0-1.52-2.29-2.19-2.29-3.81 0-1.52 1.52-1.27 3.56-1.27 1.78 0 2.54-2.54 4.06-2.54 1.53 0 2.54 1.78 2.29 4.06-.25 2.29-1.27 3.81.76 4.32 1.5.38 4.57 1.27 4.57 4.32Z"/><path fill="#FED843" d="M166.26 73.76c0 .65-.5 2.54-3.05 2.54-3.05 0-3.55-3.56-6.86-1.02-.53.42-1.69 1.12-2.8 1.02-1.3-.12-2.53-.72-2.53-2.8 0-2.7 2.28-2.53 2.28-4.82 0-1.6-2.53-2.25-2.26-4.08.23 1.29 3.28.78 3.79 4.08.42 2.76-1.27 3.05-.76 4.06 1.01 2.04 3.55-1.77 6.86.51 1.92 1.34 3.55 2.8 5.33.51Z"/><path fill="#FABE2C" d="M166.26 66.91c0 2.03-2.41 1.2-3.05.25-1-1.52-.01-2.79 1.02-2.79 1.01 0 2.03.5 2.03 2.54Z"/><path fill="#FED843" d="m166.26 66.91-.01.23a2.64 2.64 0 0 1-2.02-1c-.43-.65-.5-1.24-.35-1.72.11-.03.23-.05.35-.05 1.02 0 2.03.5 2.03 2.54Zm-8.13-3.82s1.53-.25 1.02 1.27c-.5 1.53-2.29 2.03-2.03.5.25-1.52.76-1.77 1.01-1.77Zm1.02 2.8s-.76 3.55.5 4.06c1.28.5 2.8 1.27 2.8 1.27s-4.32.25-4.57-1.02a6.24 6.24 0 0 1 1.27-4.31Z"/><path fill="#FABE2C" d="M176.28 52.82c.1.69-.13 1.43-.06 2.1.3 2.91.13 5.85-.46 8.7-.11-.77.52-2.3.18-2.96l-.2 2.34c-.19.97-.26 1.96-.43 2.91l-.34 1.52c-.02.24.2.27.28.46.01.23-.01.45-.06.67-.15.62-.81 2.3-.57 2.8l.06-.02c.44-1.72.73-3.63 1.26-5.37.07.48-.55 3.49-.87 3.72.05.17.04.13.17.26-.5.56-.3 1.72-.86 1.95.13.6-1.34 4.41-1.82 5.2l.02.1.06.03c.07-.12.1-.24.11-.37l.11.15c-.07.28-.35.55-.43.87-.04.15.06.27-.01.45l.17.22c.09-.02.07-.06.2-.2l.02.02c.06.35.25.73 0 1.09.11.2.26.4.43.56h.05l.65-1a.92.92 0 0 0 .36-.11c.08.17-.15.53-.3.7l.07.15c.42-.57.63-1.02 1.1-1.46l.02.02-.67 1.24.02.1c.64-.37.81-1.47 1.37-2.05l.02.02c-.37.85-.87 1.65-1.3 2.52l-.77 1.48.02.06.47-.47.05-.05.24.28.15.03c.15-.38.44-.67.56-1.1l.02-.01.07.02c.06.57-.48 1.37-.67 1.89l.11.1h.05c.31-.77.53-2.15 1.05-2.8l.06.03c.03.25-.2.41-.23.67l.06.41-.23.24c-.14.23-.14.64-.22.87l-.36.67-.15.85c-.2.4-.41.63-.54 1.02-.17.5.82-.6.36-.15l.16-.6-.22.15c.12.67-.14-.5.22.23-.07.12.14-.06 0-.02-.02.15.04-.26-.02-.12.1.02-.03.03 0 0l-.04.14c.77-2.77.7-1.95-.23.38l.64-.5c1.29-4.53-.48.38-.35.12.65-1.28.44.75 1-.59 1.4-3.31 2.24-6.72 3.11-10.05l.07-.07c.12.28-.1.43.09.74-.12.1-.08.09-.2.06-.14.6-.22 1.3-.5 1.9.05.14.13.27.25.36l-.02.02-.2-.1c-.36.6-.25 1.27-.62 1.84l.15.24c-.4.3-.38.89-.62 1.33.05.15.16.22.32.37l-.1.24c-.11-.17-.06-.23-.1-.4l-.17.1-.04.13c.19.25.27.37.3.6l-.08.1a.58.58 0 0 1-.15-.5l-.03-.03c-.42.28-.25.9-.51 1.27l.06.06.03.02.1-.02-.08-.09.3-.04.13.17-.28.5-.2-.06c-.03-.12 0-.14.03-.24-.2-.02-.32.44-.4.65l.1.13.19-.46.06-.02.18.13.02.02c-.09.3-.1.64-.19 1.02l-.04.05.07.06c2.67-5.38 3.77-11.05 4.67-16.46l-.09-.52.22-.61v-1.13c.1-.67.16-1.34.18-2.02.04-.58-.14-1.23.06-1.8l-.05-.39-.17.35c.02-.17 0-.34-.07-.5a.74.74 0 0 1 .29-.33 4.93 4.93 0 0 1-.18-.86l-.07-.07c-.3.54.06 1.63-.14 2.28a.4.4 0 0 1-.07-.37l-.04-.22-.13.3c.38.72.24.81.14 1.61-.24-.41.02-.8-.1-1.21h-.17c.06.17.12.35.03.54l-.11-.16c-.06-.25.11-.27-.12-.5.04-.2.23-.4.22-.6l-.09.04c-.15-.73.02-1.56.08-2.3.02-.23-.17-.46-.13-.7.2-1.51 0-3.28-.26-4.79-.26-1.55-.53-3.17-.9-4.7l-.32-.55c-.03-.12.1-.3.08-.43-.13-.72-.46-1.37-.7-2.08l-.1-.5c-.64-1.49-1.14-3.04-1.84-4.47-.46-.94-1.03-1.75-1.46-2.62-.1.03-.08.02-.15.11 0-.15.04-.2.1-.24l-1.05-1.78-.06-.02-.02.02c.06.53.6 1.1.87 1.6l.1.07-.12.04c-.21-.49-.63-1-.81-1.45-.12-.06-.25-.1-.4-.13l-.08-.65a1.9 1.9 0 0 0-.22-.35c-.44-.56-1.17-1.12-1.24-1.62-.69-.1-2.1-2.48-2.81-2.87l-.07.02.02.07c.6.21.6.94 1.14 1.34 1.26.92 2.57 2.89 3.2 4.09.32.6.6 1.41 1.08 1.97v.04l-.05.04-.06.03c-.81-1.24-1.44-2.66-2.34-3.92-.37-.53-.75-.9-1.07-1.37l-.44-.3c-.06-.11-.04-.23-.22-.39-.22-.2-.54-.24-.65-.47l-.41.07-.98-1.02-.02.03c.04.45.84.85 1.04 1.3v.17s-.82-.93-1.1-1.21c-.05.15.85 1.2 1.02 1.34l-.22.22c.15.05.24-.05.37.02.55.28 1.48 2.07 1.77 2.53.37.61.76 1.14 1.03 1.75.33.77.53 1.73.9 2.5.3.62.45 1.15.67 1.7.06.14.22.22.24.29.07.2-.01.57.07.8.2.6 1.12 2.6.86 3.06l-.13-.52h-.09l.16.7a.33.33 0 0 0 .3.05c.25.4.08.77.17 1.15l.14.37v.03c.14.32.19.68.15 1.03l-.15-1.03-.11-.32-.03-.08-.2-.52c-.03-.2.02-.37-.08-.57l-.09.09c.43 1.7.55 3.35.7 5.05.06.78-.03 1.54.07 2.32Zm-.97 14.7c-.05.03.04-.35.09-.43l-.09.43Zm-.04-1-.02.03v-.13l.02.1Zm.44 15.1-.1.03c0-.1 0-.02.04-.09l.06.07Zm.72-3.08-.06.2-.18.17-.02-.02-.02-.07.26-.3.02.02Zm-2.67-3.44-.07.06c-.08-.14-.06-.2.05-.34l.02.28Zm1.26-3.8-.12.34c-.13.06-.02-.28.02-.37l.06-.02.04.05Zm2.2 11.12c-.07-.03-.07-.11.04-.26l-.04.26Zm.1-1.15-.1.06a.4.4 0 0 1-.04-.35l.19-.15.06.03-.1.4Zm.5-1.63-.03.02-.08-.04.08-.09.02.1Zm.3-.96.02.11-.05.04c-.02 0-.04 0-.06-.02l.06-.14.02.01Zm.3-.7-.13.1a.44.44 0 0 1-.07-.37l.06-.02.13.3Zm.79-3.27c.05.26-.05.43-.09.7l-.06.06-.05-.57.17-.21.03.02Zm-2.3-16.5.02.06-.04.04.02-.1Zm-.41.45a.42.42 0 0 1 .02-.28l.09.22-.09.08-.02-.02Zm0 .22.02.97-.05.05-.06-.02.08-1Zm-.09 1.17.02-.02v.52c-.1.04-.04-.4-.01-.5h-.01Zm-.1 1.41.02-.02c.16.47-.1 1.02-.15 1.5l-.06.06c-.01-.52.06-1.04.2-1.54h-.01Zm2.95 11.7-.02-.01.02-.07.2.16-.2-.07Zm-.05-.34-.08.09-.09-.09.09-.39.08.39Zm.54-.33c-.12-.09-.26-.17-.4-.23l-.03-.07c.26-.14.38.07.44.3Zm-3.95-4.1c-.06-.13-.06-.05 0-.18l.02.02.03.11-.05.04Zm4.11 3.74-.1.1-.03-.02v-.39l.07.02.06.29Zm.05-.48c-.13.01-.02-.41.01-.5.1.18.01.31-.01.5Zm.3-1.09-.03.02-.06-.02v-.09h.09v.1Zm.84-5.38-.02.02-.06-.02-.05-.09.1-.08c.02.05.04.1.03.17Zm-.77 1.43c-.11.82-.06 1.74-.25 2.56l-.26.39c-.12.55.1 1.22-.4 1.76l.14.15-.13.18a.4.4 0 0 0-.05 0l-.06-.07c0-1.13.4-2.3.64-3.43.3-1.44.26-3.07.76-4.48.16 1-.26 1.94-.4 2.94Zm.99-2.73-.02.02a.78.78 0 0 1-.03-.59v-.39l.07.02c.12.38-.06.58-.02.93Zm.17-1.09v.18a1.2 1.2 0 0 1-.33-.47l.02-.1c.08.14.19.27.3.39Zm-.22-.43-.17-.05.02-.14.02-.03h.04l.1.22Zm-4.69-4.74c-.11.04-.07-.42-.02-.54l.02.54Zm.4-.44-.07.07c-.06-.13-.06-.05 0-.18l.06.11Zm-.1-3a.93.93 0 0 0-.07.03l-.02-.02.02-.11.06.1Zm-.37.77c.07.63.09 1.27.05 1.9a14.5 14.5 0 0 1-.08-3.18c.15.45-.02.85.03 1.28Zm.34-.96-.17-.16.02-.07.13.04.02.2Zm-.37-.92c-.07-.05-.04-.08-.09-.18l.02-.32.07.5Zm4.55 4-.1-.16.01-.02.03-.02.06.2Zm-5.32-18.78.06-.07.27.57c-.1-.01-.26-.35-.33-.5Zm-4.97-5.27.02-.07.02-.02.07.2c-.1-.02-.03 0-.11-.12Zm6.52 8.32c-.06-.02-.05-.04-.04-.13l.04.13Zm-.15-.28c-.07-.08-.03-.01 0-.13v.13Zm-2.06-2.99.03-.02h.04c.5.67.88 1.68 1.12 2.4-.2-.12-1.15-2.1-1.19-2.38Zm1.34 2.75.04.09h-.04v-.09Zm1.1 1.13.03.17-.04.05v-.22Zm-.47.37.02.37c-.1 0-.03-.29-.01-.37h-.01Zm.1.45.03-.06c.24.4.18.75.5 1.19-.55-.2-.39-.77-.52-1.12Zm.73 1.84.09-.08.02.06-.04.05h-.05l-.02-.03Zm.76.72.02-.07c.28.35.28.67.53.95-.05 0-.1 0-.15-.02-.26-.3-.24-.56-.39-.86Zm-.78-.18-.02-.1.02-.03h.09c.36.53.3 1.03.53 1.52-.23-.45-.44-.9-.61-1.38Zm1.06 3.2.15.76c-.2 0-.22-.56-.15-.74v-.01Zm-2.51-.45c.14.57 0 1.1.11 1.63.04.22.22.44.26.65-.35-.36-.43-1.81-.37-2.28Zm-.2 1.15.03-.1.06.27-.08-.17Zm.03.33.04-.1c.18.3.1.7.1 1-.17-.17-.11-.64-.15-.9h.01Zm.48 1.29.13.04c.1.06.12.17.15.28l-.15.11-.1-.04a.46.46 0 0 0-.06-.37l.03-.02Zm-.35-.26c.14.37.03.7.07 1.06-.13-.14-.14-.81-.07-1.05v-.01Z"/><path fill="#FA7F4F" d="m137.68 37.78 17.38-11.12-2.96-4.07-15.59 13.64a.97.97 0 0 0 1.17 1.55Z"/><path fill="#FED843" d="m156.45 25.24-2.58-3.54a.98.98 0 0 0-.22-.22v-.02a3.46 3.46 0 0 1 1.69-2.88c.91-.56 1.97-.63 3-.7l.9-.1a4.53 4.53 0 0 0 2.96-1.66 7.55 7.55 0 0 1-.27 6.42c-.33.62-.76 1.19-1.27 1.67a4.1 4.1 0 0 1-4.2 1.02h-.01Z"/><path fill="#FC5C1D" d="m137.68 37.78 17.38-11.12-.99-1.36-17.38 11.12a.97.97 0 0 1-.42.15.96.96 0 0 0 .26 1.13.97.97 0 0 0 1.15.08Z"/><path fill="#F0C726" d="M159.68 24.93c.35-.2.68-.44.98-.72.51-.48.94-1.05 1.27-1.67a7.55 7.55 0 0 0 .27-6.42 4.16 4.16 0 0 1-.47.5 7.55 7.55 0 0 1-.8 4.56c-.32.62-.75 1.19-1.26 1.67a4.1 4.1 0 0 1-4.2 1.02h-.01l.99 1.37h.01a4.1 4.1 0 0 0 3.22-.31Z"/><path fill="#F4F8FC" d="M143.77 31.7c0-.05.02-.1.05-.14a.35.35 0 0 1 .1-.1l.14-.1a.36.36 0 0 1 .27-.07.35.35 0 0 1 .23.14.35.35 0 0 1 .02.4.35.35 0 0 1-.1.1l-.15.1a.36.36 0 0 1-.56-.34Zm1.26-.92c0-.05.02-.1.05-.13a.35.35 0 0 1 .1-.1l.68-.5a.36.36 0 0 1 .5.07.35.35 0 0 1-.08.5l-.69.5a.36.36 0 0 1-.56-.34Zm1.9-1.39c0-.04.02-.09.05-.13a.35.35 0 0 1 .1-.1l4.65-3.39a.36.36 0 0 1 .56.35.36.36 0 0 1-.14.23l-4.66 3.39a.36.36 0 0 1-.56-.35ZM155.09 24.22a.36.36 0 0 1 .34-.3 7.68 7.68 0 0 0 3.44-.93.36.36 0 1 1 .32.64 8.4 8.4 0 0 1-3.74 1 .35.35 0 0 1-.28-.12.35.35 0 0 1-.09-.3v.01Z"/><path fill="#F88E64" d="M156.24 26.61a.98.98 0 0 0 .22-1.36l-.01-.01-2.58-3.54a.98.98 0 0 0-1.36-.22l-.48.35-.32.23 3.74 5.13.79-.58Z"/><path fill="#D4440C" d="m155.3 25.3-.8.59.95 1.3.8-.58a.98.98 0 0 0 .2-1.36v-.01l-.82-1.12a1 1 0 0 1-.33 1.19Z"/><path fill="#fff" d="M110.8 113.52c.9 1.39.71 3.43.3 4.95a6.87 6.87 0 0 1-2.18 3.73 6.97 6.97 0 0 1-6.83 1.18 7.5 7.5 0 0 1-4.72-7.06c.03-1.99.71-3.95 1.94-5.53a12.85 12.85 0 0 1 2.86-2.83c.52-.38 1.06-.73 1.63-1.06.55-.33 1.23-.8 1.88-.74.57.06.93.47.93.93.16.33.13.65.1 1.06-.05.46-.02 3.13 0 4l.09 2.6c0 .45.03.92.05 1.35 0 .39.06.77-.02 1.12-.03.16-.25.25-.39.16-.08-.05-.13-.08-.16-.13-.08.03-.16 0-.22 0a1.3 1.3 0 0 1-.76-.71c-.1-.16-.16-.35-.22-.52H105v.08c.16.63.55 1.5 1.33 1.37.58-.11.69.73.11.79-.7.08-1.44-.39-1.74-1.04-.38-.84-.35-1.74-.38-2.61l-.16-5.26-.36.25c-1.85 1.41-3.4 3.26-3.84 5.58-.02.22-.05.22-.05.38-.03.14-.03.3-.03.44-.03.65.08 1.28.27 1.88.52 1.6 2.02 3.13 3.79 3.24l.35.02a4.2 4.2 0 0 0 2.7-1.03c.27-.25.54-.57.7-.9.5-.87.6-1.9.58-2.86a3.6 3.6 0 0 0-.22-1.23c-.35-.79-.24-1.71.57-2.18.77-.46 1.7-.13 2.18.58Zm-6.1-4.55-.43.3c.08.92.19 1.82.27 2.72h.13c-.05-1-.05-2.01.03-3.02Zm3.32 6.1c0-.03-.02-.03-.02-.05 0 0 .02.02.02.05Zm.03.05c-.03-.02-.03-.02-.03-.05 0 .03.03.03.03.05Z"/><path fill="#fff" d="M123.85 107.8c-.03.1-.06.19-.11.27-.03.49-.14.98-.57 1.28-.11.08-.28.14-.41.16-.06.06-.11.11-.2.11-1.38.27-2.74.52-4.13.71l-.03 3.6.03 4.98c.02.95.08 1.9.1 2.86-.05.65-.16 1.3-.65 1.69v-.06l.06-1.14v-1.04c-.11.5-.14 1.26-.33 1.8-.19.6-.87.93-1.44.77-1.15-.36-1.4-1.61-1.45-2.67-.08-1.4-.05-2.81 0-4.2a210 210 0 0 0 .22-4.22l.06-1.2v-.87h-1.07c-.73 0-1.47-.03-2.18-.08-.57-.08-1.17-.16-1.66-.47a2.4 2.4 0 0 1-.87-1.06c-.54-.3-.87-.95-.7-1.6.16-.55.7-1.07 1.3-1.01 1.5.14 2.97.24 4.47.24l.02-.08a40.6 40.6 0 0 1-4.4-.49c-.09 0-.06-.16.02-.14 3.81.22 7.63.14 11.41-.19.3-.05.57-.08.85-.1.13 0 .3-.03.46 0 .4-.06.82-.09 1.22-.14.25-.03.33.43.06.49-.06 0-.14 0-.2.03.06.02.12.05.17.1.63.36.6 1.4-.05 1.67Zm-12.1 2.1c.47.02.96.02 1.45 0a16.6 16.6 0 0 1-3.24-.63c.43.4 1.14.6 1.8.63ZM140.86 108.23c-.82 1.45-1.85 2.78-2.73 4.2-.08.1-.16.21-.21.32.27.6.4 1.37-.17 1.83-.02.03-.08.03-.1.05a.71.71 0 0 1-.2.41c-.3.27-.68.36-1.11.33l-.68 1.22a79.77 79.77 0 0 0-2.26 4.28c-.36.68-.69 1.44-1.12 2.1-.27.43-.6.81-1.15.87-.08 0-.13-.06-.13-.11-.84.4-2.18-.27-1.83-1.44.25-.77.63-1.53.96-2.26.24-.5.46-1.01.7-1.5l-.13-.22c-.25.46-.5.95-.7 1.44a45.6 45.6 0 0 0-1.07 2.37c0-.38.05-.76.08-1.14.5-1.14.98-2.26 1.5-3.38a1.2 1.2 0 0 1 .19-.73l.63-.96.05-.1c.38-.74.76-1.45 1.17-2.18-.43-.22-.84-.47-.98-.55-1.03-.6-2.01-1.28-3.05-1.85-.08-.06-.16-.11-.25-.14-.27-.1-.51-.24-.76-.38-.22-.13-.46-.24-.7-.35l-.09-.17a.2.2 0 0 1-.1-.05c-.6-.4-1.59-.98-1.45-1.85a.9.9 0 0 1 .11-.33c-.44-.35-.08-1.41.44-1.55.1-.03.21-.06.3-.06h.19c.46 0 .95.22 1.39.44.92.38 1.85.76 2.72 1.2a36.3 36.3 0 0 1 4.03 2.26l.65-1.06 1.2-1.86c.36-.54.74-1.2 1.23-1.66.08-.08.27-.02.3.08.21.03.4.25.24.44a71.3 71.3 0 0 0-2.59 3.81c-.13.2-.24.41-.35.63-.03 0-.03.03-.03.03.03-.03.22.13.22.13.03-.02 1.2-1.88 1.25-1.93.71-1.06 1.37-2.18 2.35-3 .1-.1.21-.13.32-.1.52-.22 1.2-.06 1.58.32.5.5.55 1.23.2 1.8.02.1.02.24-.06.35ZM151.77 120.16c.63.57.8 1.15.7 1.94 0 .1 0 .21-.02.32-.1.93.11 2.07-.3 2.92-.3.65-1.22.7-1.74.35-.5-.3-.74-.73-.93-1.28-.24-.57-.32-1.28-.4-1.93l-.25-.08c-1.06-.28-2.15-.25-3.21-.3a58.68 58.68 0 0 0-3.1-.17c-.45-.03-.88-.03-1.32-.05l.17.76c.13.84.27 2.02-.25 2.78-.19.27-.54.46-.9.49a.68.68 0 0 1-.4.05c-.63.17-1.07-.24-1.37-.76-.54-.92-.98-1.9-1.33-2.91-.27-.71-.52-1.58-.06-2.3.2-.3.47-.54.77-.67.3-.25.68-.38 1.06-.41.4-.2.93-.25 1.39-.25h.03a5.9 5.9 0 0 1 .05-1.68c.1-.74.27-1.48.46-2.21.2-.68.38-1.36.63-2.02.4-1.17.95-2.28 1.69-3.3.6-.8 1.41-1.82 2.5-1.98.8-.1 1.66.14 2.05.93.08.21.13.43.16.65.19 0 .35.06.52.16.95.66 1.03 1.67 1.11 2.73.09 1.06.2 2.1.36 3.16.19 1.14.38 2.26.6 3.4l.27 1.14c.24.09.49.17.73.3.14.06.22.14.33.22Zm-4.3-.95v-.05c-.17-.5-.27-1.01-.41-1.5-.25-.96-.44-1.91-.65-2.86l-.63-2.86-.11-.5c-.14.44-.27.88-.38 1.34a26.42 26.42 0 0 0-.79 6.1l.65.08c.52.06 1.04.11 1.56.2.27 0 .51.02.76.05Zm-3.68-.4c.06-1.13.22-2.24.44-3.36.16-.87.38-1.77.65-2.64-.98 1.77-1.39 5.72-1.44 5.96.1 0 .24 0 .35.03Zm5.18.56c.08.03.19.03.3.06l-.69-3.1c.06.51.22 2.83.22 3.02l.17.02ZM165.59 107.5c.08 1.17.03 2.37 0 3.57-.06 1.85-.08 3.73-.16 5.58-.09 2.29-.17 4.57-.3 6.86-.2.25-.44.44-.77.52-.6.19-1.22-.03-1.55-.57-.06 0-.08 0-.14-.03-.4-.08-.57-.44-.65-.82-.14-.54-.03-1.17 0-1.74l.08-2.83c.06-2.02 0-4 .03-6-.14.2-.27.41-.44.6-.35.52-3.07 5.53-4.16 7.5-.2.32-.38.65-.55.98-.08.3-.13.6-.19.92-.13.71-.3 1.55-1.03 1.88-.17.08-.38.11-.55 0-.52 0-.95-.33-1.25-.73.22-3.35.52-6.73 1.06-10.05.25-1.64.52-3.3.95-4.88.14-.52.3-1.03.41-1.55.06-.06.14-.11.2-.14.46-.32 1.27-.38 1.6.22 0 .03.03.03.03.05.19.11.35.3.46.5.3.54.06 1.06-.08 1.57-.27.98-.44 1.97-.63 2.95l-.49 2.8c-.08.46-.13.93-.19 1.39.06-.38 1.88-3.73 2.23-4.38.74-1.34 1.5-2.65 2.43-3.87.52-.68 2.07-2.29 2.91-1.17.17.19.22.4.22.62h.08c.17.06.33.14.44.25Zm-10.24 1.36c-.22 1.12-.44 2.26-.63 3.4a116.3 116.3 0 0 0-1.2 10.79c0 .05-.03-.03-.05-.08a2.65 2.65 0 0 1-.11-.52l.08-.68c0-4.82.6-9.67 1.55-14.38.06-.25.47-.2.55-.03.16.38-.11 1.12-.2 1.5Zm7.38 12.58v-.1c0-.63-.03-1.26-.03-1.86v-.08c-.05 0-.08-.03-.1-.03l-.09 1.17c-.05.55-.08 1.07-.1 1.61-.04.25.05.65.2.93-.13-.55.04-1.1.12-1.64ZM181.9 122.89c.04.1-.18.16-.21.02l-.16-1.09c0 .03-.03.03-.06.06v.6c-.03.68-.46 1.36-1.2 1.36-.7 0-1.03-.57-1.14-1.23-.82-1-.79-2.7-.9-3.9-.16-1.6-.22-3.23-.19-4.84v-.35c-.13.16-.3.32-.44.49-.78.87-1.55 1.74-2.25 2.67a26.21 26.21 0 0 0-2.76 4.82c-.35.76-.6 1.58-1.03 2.31-.08.14-.27.03-.25-.1.14-.71.44-1.4.74-2.05-.03 0-.06 0-.11-.03-.44.77-.9 1.56-1.47 2.26-.38.44-.95-.05-.87-.51 0-.06.03-.11.03-.17-.17-.92.13-1.82.49-2.67a32.24 32.24 0 0 1 3.02-5.66h-.11c-1.72 0-3.92.38-5.53-.35-.95-.44-1.6-1.67-1.03-2.65 1.41-2.4 4.49-3.81 7.13-4.3 1.5-.25 2.97-.27 4.5-.05.7.1 1.6.3 2.1.87.16.16.3.38.4.6.46.32.76.87.76 1.41 0 .27-.32.8-.24.93.08.24.08.49.16.7.03-.21 0-.73.36-.7.4.05.08 4.68.08 5.25 0 2.1.08 4.2.19 6.3Zm-4.92-12.07c.05-.08.1-.16.19-.22-.14.08-1.06-.05-1.23-.02-.49 0-.98.05-1.47.13-.84.17-1.74.38-2.53.74.16 0 .35.22.52.43.4.63 2.7-.24 3.54.11.38-.38.63-.79.98-1.17Z"/><path fill="#FC5C1D" d="M116.85 4.38c.12.24.2.43.22.66.7.95 1.26 2.02.93 3.24-.08.32-.3.67-.5.93-.02.18-.03.37-.19.5-2.13 2.64-4.25 5.2-6.5 7.69 1.84 2.2 3.64 4.44 5.5 6.65 2.56 3.05 5.18 6.06 7.74 9.11 1.52 1.7 3.1 3.38 4.62 5.09.9 1.28 1.72 2.65 1.4 4.1l-.08-.1c-.54-.74-1.13-1.44-1.67-2.18l-1.6-1.9c.56 1.07 1.7 2.51 2.18 3.8a2.89 2.89 0 0 1-1.47 3.64c-2.65 1.11-5.04-.81-6.78-2.68-2.3-2.42-4.43-5.07-6.47-7.7-2-2.68-4.04-5.4-6.12-8.1l-1.75-2.28-1.35-1.6-1.95 1.64a68.51 68.51 0 0 1-4.13 3.21c-1.18.74-2.4 1.51-3.77 1.72a5.75 5.75 0 0 1-3.24-.6c-1.46.28-3.07-.41-3.78-1.87-.54-1.25-.34-3.04.85-3.87a117.8 117.8 0 0 0 8.58-6.44c-.04-.05-.03-.15-.08-.2a97.15 97.15 0 0 1-8.86 5.92c-.15.12-.35-.22-.16-.3A191.5 191.5 0 0 0 109.09 4.5c.47-.56.92-1.03 1.38-1.5.25-.21.51-.51.85-.72.67-.73 1.38-1.4 2.05-2.14.4-.43 1.27.3.85.82-.1.08-.25.2-.3.34.14-.03.28-.07.46-.05 1.7-.32 3.25 1.63 2.47 3.14ZM97.87 26.9c.9-.66 1.8-1.42 2.65-2.23a39.88 39.88 0 0 1-6.92 3.86c1.43.07 3.03-.67 4.27-1.63Z"/><path fill="#41BAF7" d="M109.83 60.92c-.13.45-.57.74-1 .84-1.85.54-3.45-.76-4.8-1.85l-1.73-1.45-21.79-8.24c-.6-.1-1.18-.3-1.72-.43 2.9 3.36 5.72 6.8 8.58 10.2 1.78 1.92 3.51 3.88 5.25 5.84 1.35 1.51 4.34 3.95 2.54 5.98a3.15 3.15 0 0 1-1.97 3.44 3.3 3.3 0 0 1-2.2.23c-3.78-4-7.46-8.07-11.15-12.15-3-3.27-5.96-6.68-8.92-10-1.9-2.16-3.85-4.28-5.51-6.56.08-.4.26-.9.57-1.24-.33-.4-.52-.93-.57-1.5-.17-3.35 5.17-2.8 7.17-2.34 3.6.82 7.01 2.04 10.42 3.36 2.8.98 5.53 2.1 8.25 3.31.27.12.4.27.52.42l2.1.88c-2.35-2.3-5.13-4.48-7.72-6.66-1.87-1.5-3.68-3.05-5.7-4.43-1.04-.74-2.3-1.32-2.58-2.78a3.2 3.2 0 0 1 .09-1.61c-.04-.05 0-.1-.03-.15-.33-1.6 1.26-2.76 2.61-2.88.2-.07.38-.06.56-.04 1 .78 2.1 1.48 3.15 2.22 3.24 2.23 6.3 4.86 9.28 7.48 6.13 5.27 11.9 11 17.47 16.83.08 1.2-.21 2.48-1.17 3.28Zm1.25-4.2c-.1.08-.1.17-.07.31-8.69-9-17.78-17.59-27.65-25.17-.18-.1-.35-.3-.32-.68 0-.5.6-1.01 1.12-.6 9.12 7.2 17.67 15.13 25.06 24.03.35.3 1.32 1.36 1.86 2.1ZM86.1 71.47c-3.3-3.3-6.66-7.2-9.84-10.68-3.14-3.43-6.22-6.99-9.3-10.55a7.58 7.58 0 0 1-1.78-2.94c1.3 1.64 2.69 3.2 4.09 4.76 2.95 3.41 6 6.83 9.04 10.25l9.91 10.88s-.12.27-2.12-1.72Zm3.54-7.16-.03.28s-.05.04-.05.13l2.47 3.05c.67.8 2.14 1.53 2.9 3.03a4.1 4.1 0 0 0-1.04-2.04c-.85-.9-1.74-1.86-2.68-2.78-.5-.6-1.02-1.11-1.57-1.67Z"/><path fill="#43BF3A" d="M53.53 58.2c-.75-.5-.89-1.57-.96-2.36-.07-.8 0-1.54.2-2.3.02-.2.04-.38.1-.5.54-2 1.58-3.9 3.47-4.81a5.06 5.06 0 0 1 4.87 0c.67.39.74 1.18.59 1.82a9.29 9.29 0 0 1-1.64 3.43c-.02 1.2-.9 2.38-1.86 3.18-.8.67-1.63 1.2-2.64 1.53-.57.23-1.6.42-2.13 0Zm4.36-1.63c1.45-1.22 1.42-1.96 1.37-1.92a6.84 6.84 0 0 1-2.35 2.07c-1.7.92-3.23.23-3.7-1.34 0 .51.06.98.16 1.5.17.62.42 1 1.11 1.02.51 0 .98-.05 1.42-.25a8.4 8.4 0 0 0 2-1.08Zm26.24 20.65c.08.6-.07 1.25-.34 1.73.34.31.58.8.3 1.37a4.2 4.2 0 0 1-4.2 2.42l-.23-.06a3.9 3.9 0 0 1-1.13.18c-1.89-.12-3.2-1.58-4.58-2.81a108.4 108.4 0 0 1-10.03-10.61c-1.51-1.8-3.12-3.61-4.43-5.58-.65-1.08-1.15-2.28-1.05-3.39a2.56 2.56 0 0 1-.02-.83c.46-1.59 1.45-5.58 3.94-4.26.3-.34.87-.48 1.3-.07 1.56 1.85 2.97 3.74 4.53 5.59 1.51 1.8 3.17 3.57 4.77 5.38.3.35.73.76 1.16 1.16.05-.13 1.68 1.5 1.78 1.41a190.04 190.04 0 0 1-10.34-12.4c-.09-.1.22-.44.26-.4a173.36 173.36 0 0 0 19.11 20.4c.47.46-.28 1.18-.8.77ZM61.4 61.47c1.14 2.88 3.42 5.5 5.26 7.88l.42.5.08.1c1.11 1.12 2.27 2.2 3.43 3.27l.15-.13c-1.9-2.25-3.83-4.46-5.68-6.75-1.43-1.7-2.88-3.64-3.68-5.7l-.05.04c-.07.22-.01.7.07.8Z"/><path fill="#F9CD16" d="m60.18 69.65.73 1.17c.7 1.04.47 2.69-.42 3.26-2.48 1.83-5 3.6-7.52 5.38 3.04.87 5.96 1.9 8.82 3.18 3.75 1.71 8.15 3.4 10.49 6.98.77 1.23-.17 2.45-1.32 2.81-.4.43-.85.8-1.47.99-.05.04-.1.08-.14.03-.03.28-.24.63-.53.7-2.88-1.6-5.85-3.1-8.79-4.57-1.64-.84-5.77-3-8.28-4.06a19.7 19.7 0 0 0-2.1-.87l-.04-.05c-.68-.2-1.4-.45-2.03-.69-1.34 1.04-2.78 2.08-4.12 3.12 2.14 2.04 4.27 4.18 6.31 6.4 2.21 2.32 4.6 4.66 6.52 7.24.3.26.55.56.76.8.2.86.28 1.66.11 2.48-.19 1.1-1.14 1.99-2.33 1.79a2.89 2.89 0 0 1-.98-.55c-.31.44-1.1.5-1.57-.04-1.13-.84-2.04-2.13-3.07-3.14L46 99.08l-7.14-6.04-1.77-1.5-.3.25c-.12-.15-.35-.22-.6-.1-.67.31-1.39.58-2.1.84l1.02-1.12c-.67.22-1.47.39-2.18.46-2.15.28-3.66-2.73-2.16-3.99.26-.3.56-.55.86-.8-1.78-1.41-3.6-2.87-5.43-4.23.15-.64.2-1.28.13-1.99-1.63 0-3.36-.94-3.77-2.55-.6-2.65 2.94-4.52 4.84-5.61.2-.17.44-.2.62-.18.48-.14.91-.34 1.39-.48.05-.05.14-.04.2-.08 6.97-2.87 14.78-3.64 22.46-4.46.65-.03 1.19.2 1.63.52 1.12-.1 2.28-.13 3.35-.18 1.3-.07 2.36.58 3.14 1.8Zm-26.75 9.42c.13.05.26.2.4.26.03-.46.54-.88.96-.47 1.14.84 2.27 1.68 3.35 2.56.3-.16.6-.4.89-.57-.16-.3-.26-.72-.18-1.13.7-2.21 3.49-2.25 5.44-2.26l5.35-3.48c-6.08.58-11.89 1.8-17.03 4.41l.82.68ZM55.91 98.6c-3.7-3.99-7.33-8.02-11.38-11.61l.4-.34c2.94 2.48 5.71 5.27 8.49 8.07 1.66 1.67 1.68 2.5 2.49 3.88Z"/><path fill="#DA1A16" d="M32.68 96.22c.93 4.76-4.56 8.18-8.09 10.3-.53.27-1.02.6-1.56.88.6.51 1.26.99 1.83 1.45 2.5 2.08 5.11 4.16 7.42 6.4a12.64 12.64 0 0 1 2.78 3.81c.46 1.06.59 2.33.43 3.57-.17.9-.76 2.34-1.99 2.1-1.14-.24-1.94-1.2-2.8-2-.6-.53-1.25-1.1-1.84-1.7-.93-.59-1.84-1.27-2.75-2.05.52.51.99.97 1.5 1.39a53.4 53.4 0 0 0 2.54 2.3c.6.61 1.43 1.2 1.74 1.96.04.05.04.05-.05.05-.9-.27-1.67-1.17-2.35-1.79l-2.64-2.22c-1.68-1.49-3.41-2.94-5.13-4.48-2.08-1.76-4.15-3.6-6.17-5.4-2.06.7-4.2 1.3-6.37 1.76-.1 0-.13-.15.02-.18a64.56 64.56 0 0 0 6-1.9c-.3-.25-.6-.42-.91-.68-1.53.52-3.05.95-4.57 1.37-1.52.43-3.08-.91-3.33-2.33-.18-1.13.47-2.7 1.66-3.1l.43-.1c-2.45-1.7-4.95-3.36-7.51-4.88-1.02-.6-1.09-1.9-.55-2.78-.43-.4-.47-.97-.38-1.47.68-2.54 3.38-3.7 5.65-4.24 2.37-.54 4.76-.84 7.16-1.15 4.91-.55 9.84-.68 14.84-.52.7.01 1.18.29 1.47.73.72.25 1.34.58 1.86 1 1.38 1.23 1.82 2.57 1.66 3.9Zm-10.5-.31c-2.17.37-4.34.74-6.46 1.16-1.57.37-3.13.75-4.7 1.21 2.1 1.48 4.2 2.97 6.24 4.58a43.92 43.92 0 0 0 3.96-1.8 22.39 22.39 0 0 0 6.3-4.78l.32-.44c-.14-.05-.27-.11-.45-.13-1.59-.46-3.48-.07-5.22.2Zm3.03 8.9c-.99.65-2.06 1.2-3.18 1.8.18.11.3.26.44.32.24-.12.44-.2.64-.36 2.2-1.34 4.5-2.77 6.29-4.6l1.64-1.9c-.04-.05-1 .93-1.05.88-1.53 1.63-3.36 3-4.78 3.85Zm4.9 10.9c1.54 1.53 3.2 3.3 3.65 5.47l.23.06c.12-.27.18-.5.2-.77-.6-2.14-2.23-3.67-3.97-5.03l-1.6-1.3c0 .1.6.61.55.65l.94.92Z"/></svg>